<svg xmlns="http://www.w3.org/2000/svg" viewBox="0 0 490.42 195.92"><defs><style>.cls-1{fill:#212a33;}.cls-2,.cls-3{fill:#157dff;}.cls-3{font-size:17px;font-family:Future-Earth, Future Earth;}</style></defs><g id="Capa_2" data-name="Capa 2"><g id="Capa_1-2" data-name="Capa 1"><path class="cls-1" d="M35.22,47.91,23.09,23.28h53.8q45,3.79,45.1,50,0,46.39-41,50H23.1V73.12H47.9V98.2h29c12.47,0,18.73-6.15,18.8-25.22-.2-18.73-7.8-25-22.8-24.91l-37.67-.16Z"/><polygon class="cls-1" points="172.57 23.44 172.57 123.06 147.67 123.06 147.67 23.44 172.57 23.44 172.57 23.44"/><path class="cls-1" d="M297.17,23.15l-11.9,24.92H245c-13.92.07-21,6.09-21.28,24.74.13,19.11,6.39,25.16,18.78,25.09h54.72v25.16H238.46q-41-5-41-49.95c0-30,14.06-50,45-50Z"/><polygon class="cls-1" points="347.2 23.44 347.2 123.06 322.3 123.06 322.3 23.44 347.2 23.44 347.2 23.44"/><path class="cls-1" d="M445.76,72.77q0-12.61-5.58-21.4t-18.29-8.78q-13.58,0-19.83,8.89t-6.25,21.29a38.06,38.06,0,0,0,6.2,20.3q6.21,10,19.88,10,12.72,0,18.29-8.94t5.58-21.35Zm27.55,0q0,23.57-13.83,38.07t-39,14.51q-24.93,0-38.86-15.09T367.73,72.77q0-23.55,14.88-38.06T420.52,20.2q24.08,0,38.44,14.51t14.35,38.06Z"/><path class="cls-2" d="M3.46,27.72A3.46,3.46,0,0,1,0,24.26V3.46A3.46,3.46,0,0,1,3.46,0h20.8a3.47,3.47,0,0,1,0,6.93H6.92V24.26a3.46,3.46,0,0,1-3.46,3.46Z"/><path class="cls-2" d="M487,27.72a3.46,3.46,0,0,0,3.46-3.46V3.46A3.46,3.46,0,0,0,487,0h-20.8a3.47,3.47,0,0,0,0,6.93H483.5V24.26A3.46,3.46,0,0,0,487,27.72Z"/><path class="cls-2" d="M487,146.42h-20.8a3.47,3.47,0,0,1,0-6.93h17.33V122.16a3.47,3.47,0,0,1,6.93,0V143a3.46,3.46,0,0,1-3.46,3.47Z"/><path class="cls-2" d="M24.26,146.56H3.46A3.46,3.46,0,0,1,0,143.1V122.3a3.46,3.46,0,0,1,6.92,0v17.33H24.26a3.47,3.47,0,0,1,0,6.93Z"/><text class="cls-3" transform="translate(69.37 189.55)">TAN ÚNICO COMO TÚ</text></g></g></svg>